<svg version="1" xmlns="http://www.w3.org/2000/svg" width="800" height="800" viewBox="0 0 600.000000 600.000000"><path d="M271.5 80c-14.8 1.9-24.1 3.6-30.4 5.6-2.5.8-5.4 1.4-6.5 1.4-1.2 0-3.4.7-5 1.5-1.5.8-3.8 1.5-5 1.5-1.1.1-3.9.9-6.1 2-2.2 1.1-4.8 1.9-5.7 2-1 0-1.8.4-1.8 1 0 1.5 5.4 1.2 7.6-.5 1-.8 3.6-1.5 5.7-1.5s4.7-.5 5.8-1c1.9-1 6.2-1.8 21.9-4 4.1-.5 11.1-1.5 15.5-2.2 13.2-1.9 47.6-1.3 64.5 1.1 25.1 3.7 27.4 4.1 30 5 1.4.6 4.1 1.3 6 1.6 5.7 1.1 21.8 6.2 32 10.2 37.2 14.5 72.8 39.1 96.4 66.6 16.6 19.3 26.9 35.7 36.3 57.7.8 1.9 2 4.3 2.5 5.4.5 1 1.7 4.4 2.5 7.5.8 3.1 2.1 7.8 2.9 10.6 4.3 14.4 6.8 39.5 5.9 58-.8 18.4-4.9 38.1-11.2 55-3.8 10.3-11 25-15.8 32.5-8.9 13.8-11.5 17.6-14.2 20.6-5.2 5.8-8.3 9.6-8.3 10.1 0 1.1-4.6 5.3-5.7 5.3-.7 0-1.3.7-1.3 1.5s-.7 1.5-1.5 1.5-1.5.7-1.5 1.6c0 .8-.5 1.2-1 .9-.9-.6.5-2.6 7.8-11.3 8.3-9.9 22.6-34.2 29.3-49.7 1.7-4 6.1-17.1 6.9-20.5 2.9-12.3 4.1-19.1 5.6-31.8 1.7-14.6 1.5-20-1.6-42.7-3.3-24.8-15-54.2-30.5-77-3.3-4.9-13.1-16.9-15.5-19l-2.3-2 .7 3c2.2 10.2 1.8 14.3-2.6 23.1l-2.1 4.1 2.3 7.4c1.2 4.1 3.3 10.7 4.7 14.6 1.3 4 2.8 9.4 3.3 12 .4 2.7 2 9.7 3.4 15.8 1.4 6 2.6 12 2.6 13.3 0 4 2.9 8.3 7.1 10.1 9.9 4.4 16.9 11.1 22 21 1.8 3.6 2.3 6 2.3 12.5-.1 19.1-2.3 26.4-10.4 35.6l-3.9 4.4.6 9.1c.5 7.6.3 9.6-1.1 11.7-2.6 4-7.5 5.8-15.3 5.8-7.4-.1-10.5-1.7-13.3-7.3-1.6-3.3-2.6-3.4-4.1-.5-1.9 3.7-19.9 21.6-27 26.8-3.6 2.7-10.1 6.5-14.5 8.5-4.3 2-8.8 4.1-9.9 4.6-1.1.5-3.8 1.3-6 1.8s-7.6 1.9-12 3.1c-4.4 1.1-10.8 2.4-14.2 2.7-8.7.8-9 1.1-7.5 7.5.7 2.9 1.9 8.2 2.6 11.8.7 3.6 1.6 7.4 1.9 8.5 1 3.1 3.8 36.6 3.1 37.6-.8 1.4-6.4 4-7.3 3.5-.4-.3-1.1-6.3-1.4-13.3-.9-19.3-4.4-38-10.5-56.3-5.4-16.4-19.6-43-22.9-43-1.7 0-1 4.6 1.2 9 4.2 8.2 8.8 24.1 11.6 40 2.6 14.8 2.9 45.5.5 56.8-.9 4-1.6 8.4-1.6 9.8 0 3.1-4.8 6.1-11 6.9-2.5.3-8.5 1.3-13.5 2.1-11.2 1.8-30.4 3.4-41 3.4-18.1 0-57.4-4.2-64.9-6.9-1.1-.5-4.1-1.1-6.6-1.5-6.5-.9-10.6-3.7-11.4-7.7-.4-1.9-1.3-10.4-2-18.9-1.1-12.9-1.1-18 0-30.4.8-8.2 1.8-16.3 2.3-18 .5-1.7 1.2-4.9 1.6-7.1 1.2-7.1 5.4-20 9.6-29.2 2.6-5.6 3-9.3 1-9.3-1 0-6.2 7.4-9.2 13-4.9 8.9-4.9 9-10.4 9-5.8 0-18.5-2.2-26.5-4.6-14.6-4.4-29.5-13.8-39.5-24.8-4.9-5.4-6.7-6.8-7.6-5.9-1.4 1.4 3.9 11.6 10.7 20.4 10.8 14.1 31 27.9 49.7 33.9 8.5 2.8 9.4 3.8 7.7 9.3-3.2 10.8-4 13.7-5 20.2-.7 3.8-1.6 9.2-2 12-.5 2.7-.9 9.4-.9 14.7-.1 8.8-.3 9.8-2.2 10.8-1.6.9-2.6.8-4.6-.5l-2.6-1.7.7-11.2c.6-10.9 1.2-14.9 4.3-29.4 2.1-9.7 2.2-15.2.3-16.3-2.1-1.2-15-6.9-15.6-6.9-.2 0-2.3-1.2-4.7-2.7-2.3-1.6-5.2-3.2-6.3-3.8-6.1-2.8-20.8-16.5-27.4-25.5-5.7-7.8-11.1-18.2-11.9-23l-.6-3.5-9-.5c-11.4-.7-18.8-3.6-25.8-10-7.3-6.6-10.8-13.3-11.2-21.4-.1-3.4-.8-7.2-1.4-8.4-1.5-2.8-1.3-8.9.4-13.7.8-2.2 1.5-4.6 1.5-5.4 0-2 6.4-10.5 10.9-14.6 2.1-2 4.1-4.8 4.4-6.3.2-1.5 1-4.1 1.5-5.7.6-1.7 2.5-7.7 4.2-13.5 1.8-5.8 3.8-12.3 4.5-14.5.7-2.2 2.3-7.4 3.5-11.5 1.2-4.1 2.8-9.3 3.5-11.5.7-2.2 2.1-6.7 3-10 .9-3.3 2.3-7.8 3-10 8.5-25.8 11.8-38.2 10.5-39-1-.6-12.5 10.7-20.1 19.6-7 8.4-14.4 18.6-17 23.4-.9 1.6-3.6 6.6-6.1 11-2.4 4.4-5.4 10.9-6.8 14.5-1.3 3.6-2.7 7-3.1 7.5-.4.6-1.2 2.9-1.8 5-.5 2.2-1.7 6.5-2.6 9.5-1.7 5.6-2.4 8.9-5.1 23.7-2.1 11-2.1 42.1 0 52.4.8 4.1 1.7 9.2 2.1 11.4 1.1 6.4 8.4 29.2 11.1 34.3.8 1.5 1.4 3 1.4 3.3 0 2.1 16.9 30.2 19.5 32.4.7.5 3.4 3.9 6 7.5 2.7 3.6 11.1 12.7 18.7 20.2 7.7 7.6 13.4 13.8 12.8 13.8-2 0-9.9-5.6-17.6-12.5-18.9-16.8-30.4-30.6-42.7-51.3-13.4-22.4-20.6-42.1-25.8-70.7-.6-3.3-1.3-13.6-1.6-22.9-.7-21.3.8-33.3 7.4-57.6.8-3 2.1-7.3 3-9.5.8-2.2 2.2-5.8 3-8 4.2-11 18.4-37.1 24-44 .5-.6 3.5-4.4 6.7-8.5 8-10.3 30-32.9 34.9-35.6 1.5-.9 9.7-7.7 12.7-10.5.9-.8 2.4-1.8 3.3-2.2 1.6-.6 2.4-2.7 1.1-2.7-1 0-7.9 4.3-8.2 5.2-.2.4-.8.8-1.3.8-1 0-6.3 3.5-8.8 5.8-.8.8-3 2.4-5 3.7-9.8 6.4-36 33.4-44.7 46-8.2 12-10.6 15.8-13.7 21.7-2 3.7-4.1 7.5-4.6 8.5-.6 1-2 4-3.1 6.8-1.2 2.7-2.7 6.3-3.4 8-2.8 6.4-7 19.9-9 29-4.2 19.2-4.6 22.7-4.6 43.3 0 20.6.5 25.9 4.6 44.7 2.1 9.8 6.1 22.3 9.6 30.5 1.1 2.5 2.6 6.1 3.4 8 .8 1.9 2.2 4.8 3.1 6.5.9 1.6 2 3.7 2.4 4.5 12.4 24.5 38.1 55.3 60.8 72.5 2.9 2.2 6.7 5.2 8.5 6.8 14.7 12.1 53.7 31.8 76.6 38.6 4.1 1.2 8.6 2.6 10 3.1 2.2.8 8.1 2.2 25 6 18.1 4 56.3 6 77.5 4.1 17.4-1.5 28.5-2.9 32.5-4 1.9-.6 8-2 13.5-3.2 22.1-4.8 45.7-13.8 70-26.7 33.9-18 64.4-45.5 86.8-78 2-2.9 3.7-5.7 3.7-6.1 0-.4 1.2-2.3 2.6-4.2 2.2-2.9 7.4-13.1 13.7-26.9 4.2-9.2 11.6-34.4 11.7-39.7 0-1.7.5-4.4 1.1-6 2.9-7.4 2.9-48.8 0-63.8-7.2-36.6-18.6-62.6-40.6-91.8-12.5-16.6-27.9-32.1-44.6-44.6-5.2-3.9-9.8-7.5-10.4-7.9-.5-.4-5.9-3.8-12-7.4C418.3 97.3 381 84.6 340 79.5c-16.8-2-51.1-1.8-68.5.5zM146.2 462.3c.7.7 2.1 1.6 3.1 2 2 .7 2.3 2.7.5 2.7-2.1-.1-8.5-6-6.6-6 .9 0 2.3.6 3 1.3zm8.8 6.3c0 .2-.9.4-2.1.4-1.1 0-1.8-.4-1.4-1 .5-.8 3.5-.3 3.5.6z"/><path d="M204 98c0 .5.6 1 1.4 1 .8 0 1.8-.5 2.1-1 .3-.6-.3-1-1.4-1-1.2 0-2.1.4-2.1 1zM281.5 106.7c-2.2.2-10.1 1.3-17.5 2.5-7.4 1.1-15.7 2.4-18.5 2.8-2.7.4-6.3 1.2-8 1.8-1.6.6-5.7 1.8-9 2.7-8.9 2.5-17.5 5.4-21.5 7.1-1.9.9-4.4 1.9-5.5 2.4-13.8 5.9-13.2 5.4-13.9 10.6-.7 4.2-3.3 14.5-5.3 20.6-.3 1.2.3 2.1 2 2.9 3.4 1.5 6.1 6.8 5.4 10.5-.4 2.7-1.7 7.2-5.3 18.9-.8 2.7-1.9 6.8-2.5 9-.6 2.2-1.4 4.4-2 4.9-.5.6-.9 1.8-.9 2.8 0 .9-1.4 6.1-3.1 11.5-5.6 17.7-8.6 27.7-10.9 35.3-1.2 4.1-2.8 9.3-3.5 11.5-.7 2.2-2.1 6.7-3 10-1 3.3-2.4 7.7-3.1 9.8-.8 2-1.4 5.1-1.4 6.8 0 2.9.2 3 3.1 2.4 3.9-.9 7.3.5 17.4 7 13.9 8.9 22.7 13.7 38.5 20.8 2.5 1.1 5.4 2.4 6.5 2.9 5.9 2.6 19.1 6.5 19.8 5.8.5-.4.2-3.4-.7-6.6-.8-3.3-1.7-7.1-2.1-8.6-.3-1.7-1.7-3.4-3.5-4.3-6.8-3.5-7.5-8.3-2.9-21.7 1.6-5 2.8-9.6 2.6-10.2-.3-.7-3.6-2.7-7.3-4.6-18.5-9-31.5-24.3-35.7-42-3-12.4-2.9-14.9.2-29 1.9-8.8 7.5-17.5 16.9-26.6 9.1-8.7 19.8-14 34.7-16.9 17.5-3.5 38.9.9 53.2 10.9 4.8 3.3 8.9 3.6 14.7 1.2 11.6-4.8 40.9-3.4 51.9 2.5 1 .6 4.5 2.3 7.7 4 3.3 1.7 8.4 5.2 11.4 8 5.9 5.3 7.1 5.7 11.8 3.3 2.2-1.1 4.3-1.4 8-.9 4.7.7 5 .6 8.4-2.9 4-4.1 6.7-4.5 12.1-1.6 2 1.1 3.9 1.8 4.1 1.5.3-.2-.3-2-1.2-4-1-2-2-5.3-2.3-7.3-.3-2-1.4-5.2-2.5-6.9-1.1-1.8-1.9-4.7-1.9-6.5.1-1.8.1-7.7.1-13 0-7.2.4-10 1.5-11.2.8-.8 1.5-1.7 1.5-2.1 0-.3-3.5-2.2-7.7-4.1-4.3-1.9-8.9-4.1-10.3-4.9-2.5-1.3-15.9-5.9-26-8.9-3-.9-7.7-2.3-10.3-3.1-2.6-.8-6.1-1.5-7.7-1.5-1.6 0-5.7-.6-9.2-1.4-15.7-3.6-50.2-5.5-67.3-3.9zM151.8 122.7c.7.3 1.6.2 1.9-.1.4-.3-.2-.6-1.3-.5-1.1 0-1.4.3-.6.6z"/><path d="M171.4 126.8c-4.9 4-10.4 18.3-11.9 30.7-.3 2.7-1 6.5-1.6 8.5-.7 1.9-1.7 5.3-2.4 7.5s-2.3 7.4-3.5 11.5c-1.2 4.1-2.5 8.6-3 10-.5 1.4-1.8 5.9-3 10s-2.8 9.3-3.5 11.5c-.7 2.2-2.1 6.7-3 10-1 3.3-2.4 7.8-3.1 10-.7 2.2-2.6 8.7-4.4 14.5-8 27.1-9.7 31.5-11.8 31.8-2.9.4-3.7-3.1-1.9-8.1.8-2.3 2.3-6.9 3.2-10.2 1-3.3 2.3-7.8 3-10 .8-2.2 3-9.4 5-16s4-13.1 4.5-14.5c.5-1.4 1.8-5.9 3-10s2.8-9.3 3.5-11.5c1.8-5.6 3.8-12.3 7.4-24.5 1.7-5.8 3.6-11.8 4.1-13.5.8-2.4.7-3.3-.9-4.8-2.9-3-5.4-.9-7.5 6.5-1 3.5-2.7 8.8-3.6 11.8-1 3-2.5 8.2-3.5 11.5-1 3.3-2.4 7.8-3.1 10-.7 2.2-2.7 8.7-4.4 14.5-4.1 13.5-5.9 19.5-7.5 24.5-.7 2.2-2.3 7.4-3.5 11.5-2.2 7.5-5.6 18.3-9.1 29.3-2.3 6.9-2.4 9.6-.4 10.3 2.5 1 1.8 2.1-3.5 5.3-6.7 4.2-10.8 8.6-13.6 15-1.7 3.9-2.2 6.2-1.7 7.8.8 2.3.9 2.3 4.3-2.2 7.1-9.5 17.7-13.7 19-7.5.3 1.4 1.3 4 2.4 5.9 3.7 6.9-.4 20.2-7.4 23.8-2.6 1.4-8.9.9-12.4-.9-2.5-1.4-4 .4-3.2 3.7 1 3.8 9.7 12.2 15.2 14.5 5.2 2.3 21 2.8 24.5.9 1.5-.7 2.4-.7 3.3 0 2.2 1.8 4.2.4 15.4-11.1 5.9-6.1 11.4-11.4 12.2-11.8 1-.5 4.3.5 9.5 3 13.3 6.4 19.3 9 20.4 9 .6 0 2.5.6 4.3 1.4 13.5 5.7 33.3 10.9 58.3 15.3 14.2 2.5 62.5 2.5 77 0 25.4-4.4 37.1-7.4 59.5-15.4 11.9-4.3 39.9-17.4 48.5-22.8 2.2-1.4 4.9-2.9 6-3.4 1.1-.5 2.8-1.8 3.8-2.9 2.4-2.7.6-3.8-3-1.8-2.9 1.5-16.4 7.8-24.3 11.3-8 3.5-18.7 7.6-26 9.8-3 1-7.3 2.3-9.5 3-2.2.7-7.6 2.1-12 3-4.4.9-10.5 2.3-13.5 3-3 .7-8.9 1.6-13 1.9-4.1.4-9.2.9-11.2 1.2-4.9.7-5.1-1.4-.4-5.3 3.5-2.9 11.8-14.4 12.9-17.8.3-1.1 1.3-4 2.2-6.5.9-2.4 1.9-9.1 2.2-14.8.5-8.6.9-10.5 2.5-11.3 2.4-1.3 2.3-3.9-.7-9.5-3.5-6.6-7.6-19.4-7-21.5.4-1.1 2-2.1 4.3-2.5 8.6-1.6 21.8-9.8 26.9-16.6 5.9-7.9 6.8-10.6 6.8-21.8 0-9.6-.3-11-2.9-15.9-8.7-16.8-30.1-28.2-52.7-28.2-9.5.1-26.9 3.8-29.5 6.4-1.6 1.5-4.4.5-9.1-3.3-10.5-8.3-21.2-12.1-36.6-12.7-12-.5-19.8 1.2-31.3 6.8-18.5 9-29 25-28.8 44.4.1 22.8 14.7 41.5 39.9 51 7.7 2.9 7.7 2.8 1.4 23.3-3.2 10.2-2.4 10.7 9.3 5 9.5-4.6 14.4-6.4 25.8-9.3 7.7-2 33.1-3.1 47.3-2 8.8.6 9.9.9 11.3 3.1 2.4 3.6 3.4 9 3.5 18.6.1 7.3-.3 9.6-2.4 14.2-5.5 12-16.9 20.3-31.7 23-7.7 1.5-9.1 1.5-16.5 0-9.4-1.9-17.2-5.8-23.8-12.3-5.2-4.9-10.4-14.6-11.5-21.3-1-5.9-2.7-5.1-3 1.5-.4 8.4 4.5 19.9 11.7 27.4 1.1 1.2 2.1 2.5 2.1 2.8 0 2.8-31-5.8-48.5-13.5-15.7-6.9-32.6-16-44.7-24.2-6.4-4.3-9.2-4.1-10.4.7-.3 1.4-.8 2.5-1.1 2.5-1.4 0-4.3-2.3-4.3-3.3 0-.7-1.6-2.9-3.6-4.8-3.3-3.2-3.5-3.7-3.1-8 .3-2.6 2-8.9 3.6-14 1.7-5.2 3.8-11.9 4.7-14.9.9-3 2.2-7.3 2.9-9.5.6-2.2 1.9-6.3 2.8-9 .8-2.8 2.9-9.7 4.7-15.5 1.7-5.8 3.7-12.3 4.4-14.5.7-2.2 2.1-6.7 3.1-10 .9-3.3 2.3-7.8 3-10 .7-2.2 2.3-7.4 3.5-11.5 1.2-4.1 2.7-8.9 3.3-10.7 1.3-4 .2-5.5-5.2-7.2-2.2-.6-4.3-1.6-4.7-2.2-.3-.5.5-3.3 1.9-6.2 5.9-12 8.2-25.7 5.3-30.2-1.9-2.9-3.3-3.1-6.2-.7zm99.9 52.7c10 1.3 25.1 10.6 29.9 18.4 4.4 7.3 5.8 10.6 5.8 13.8 0 1.7.5 3.5 1.1 3.9 2 1.2 3-1.9 2.4-7.3-.6-6.4.1-7.2 9.7-10.9 6.5-2.5 8.5-2.8 18.6-2.8 6.2.1 12.3.6 13.5 1.2 1.2.6 4.5 2 7.3 3.2 5.7 2.4 13.1 9.4 16.3 15.5 4.6 8.6 1.7 20.7-6.9 29.3-5.1 5-14.8 11-18.6 11.4-2.5.3-2.8-.1-4-4.7-1.8-6.7-4.3-30.2-3.7-34.1.5-3.3-.6-4.8-2.9-3.9-3.5 1.4-7.8 22.8-7.8 39.2 0 8.4-.4 12.4-1.2 13.1-.7.6-6.5 1.5-12.8 2.1-18.3 1.8-31.6 5.1-48.3 12.1-4.2 1.8-8 3-8.4 2.7-.3-.4-.8-3-1-5.9-.8-11.2-2.5-26.5-3.4-30.3-2.1-8.4-6.2-20.5-7-20.5-1.9 0-2.9 4.1-2.3 9.4.9 7.2 0 10.6-2.8 10.6-9.3 0-24.1-11.8-27.6-22.1-5.5-16 5.5-33.9 25.2-41.4 8.5-3.1 15.7-3.6 28.9-2zM133.8 309.4c7 6.4 8.3 14.3 3.7 23.9-1.6 3.5-7.9 9.7-9.7 9.7-1.3 0-.9-3.5.5-4.8 2-2.1 1.6-18.1-.5-21.2-2-2.8-2.2-4.8-.8-8.4 1.3-3.4 2.2-3.3 6.8.8z"/><path d="M426.7 143.7c-2.6 2.5 3.2 11 10.4 15.5 3 1.9 4.9 3.8 4.9 4.9 0 2.6-1.2 2.4-3.9-.5-1.3-1.3-3.5-2.7-4.9-3.1-1.5-.3-3.4-.8-4.3-1.1-1-.3-1.9.3-2.3 1.2-.8 2 3.8 9.1 6.4 9.9 1 .3 2.1 1.2 2.4 2 .7 2 7 2 8.6 0 .7-.8 1.6-1.5 2-1.5 1.2 0 5 6.9 5 9.1 0 1.8-.5 1.6-4.6-1.6-3.2-2.3-5.8-3.5-8-3.5-4.1 0-6.4.9-6.4 2.4 0 1.9 7.4 8.6 9.5 8.7 1.3 0 .8.5-1.4 1.3-3.9 1.4-4.6 2.4-2.8 4.6 1.9 2.3 7.5 6 9.1 6 .8 0 1.8.4 2.1 1 .3.6-.4 1-1.7 1-8.3.1-4.5 7.7 5.5 10.9 2.2.7 5.9 1.4 8.4 1.5l4.6.1 1.8 5.5c1.8 5.8 7.6 29.2 10.4 42 .9 4.1 2.3 10.3 3.1 13.7 1.6 7.1 1.8 11.3.5 11.3-.5 0-2.7-2.8-4.7-6.3-2.1-3.4-7.1-11-11.1-17-4-5.9-7.3-11.1-7.3-11.6s-.7-1.1-1.5-1.5c-.8-.3-1.5-1.3-1.5-2.3.1-1.6.2-1.6 1.6.2 3.6 4.9 7-4.3 4.5-12.6-.6-1.9-2.2-4.5-3.5-5.8l-2.4-2.3-1.2 2.3c-.8 1.5-1 4.4-.6 9 .4 3.8.4 6.9-.1 6.8-1 0-5-5.1-5.9-7.3-.4-1 .3-1.9 2.1-2.8 2.5-1.1 2.6-1.5 2-5.6-.8-5.4-3.7-12.3-5.9-14.1-2.9-2.5-4.1.2-3.8 8.5.1 4.1-.2 7.4-.6 7.4-.5 0-1.7-.9-2.7-2-1.6-1.8-1.6-2.2-.2-5.3 1.7-3.5 1.3-7.1-1.6-13.8-2.3-5.1-4.3-6.6-6.9-5-2.3 1.4-2.4 1.3-5.3-4-1.5-2.8-7-7.9-8.6-7.9-1.3 0-1.1 7.4.3 10.7.6 1.5 1.8 3.6 2.7 4.6.8.9 1.1 2 .7 2.4-.4.4-2.5-1.2-4.8-3.6-6.4-6.5-16.5-11-18.3-8.1-1.5 2.5 7.9 12 11.9 12 2.3 0 9.6 3.1 9.6 4 0 1.8-2.2 2.1-4.5.6-3.4-2.2-12.5-2.2-12.5 0 0 2.5 5.8 7.3 9.6 8 3.6.7 4.4 2.4 1.9 4.4-3.4 2.8-.1 6 8.2 7.9l3.8.9-3.3 1.2c-2.3.8-3.1 1.7-2.8 2.7.3.8.6 1.7.6 1.9 0 .2 2.5 1.5 5.5 2.9 5.3 2.3 6.6 3.7 4.5 5-1.8 1.1-1.1 2.5 2.3 4.5 4.4 2.7 16.1 2.9 17.6.2 1-1.5 1.4-1.4 4 1.5 4.2 4.5 22.1 35.4 22.1 38.1 0 .5-1.9 2.2-4.2 3.7-9.3 6.1-15.4 15.2-16.5 24.4-.2 2.5.2 8.6 1 13.6.9 4.9 1.9 13.4 2.3 18.8l.6 9.7-4.7 7.1c-5.9 8.9-19.4 22.3-27.7 27.8-8 5.3-29.9 16.1-32.6 16.1-1.1 0-3 .9-4.3 1.9-3.2 2.6-1.6 4.4 2.7 3.2 1.7-.5 6-1.2 9.5-1.6 3.5-.3 8.4-1.2 10.9-2 2.5-.7 7.2-2.1 10.5-3 8.8-2.6 19.7-7.8 26.2-12.5 10.3-7.4 26.2-23.8 27.7-28.6.4-1.2-.1-4.1-.9-6.5-3.6-9.6-3.5-9.9 3.5-7.4 2.3.8 5.7 1.5 7.4 1.5 5.3 0 6.5 1.6 7.3 10.5l.8 8h12v-21.1l6.3-6.9c4.1-4.5 6.2-7.6 6.2-9.3 0-2.2-.3-2.4-2.7-1.7-1.6.4-5.3.9-8.3 1.1-6.6.5-8.7-.9-11.9-7.9-2.5-5.4-2.7-13-.6-17.1 1-1.8 1.3-4.1 1-5.8-.6-2.6-.4-2.8 2.3-2.8 5.8 0 18 8.5 20.7 14.5.8 1.8.9 1.6 1.3-1.2.4-4.1-3.7-12.9-8.2-17.4-3.4-3.3-8.1-6.1-16.2-9.4-4-1.6-4.2-1.9-5.3-7.8-3.4-18.7-7.7-37.5-11.7-50.7-.9-3-2.2-7.5-2.9-10-.8-2.5-2.3-7-3.4-10-1.2-3-2.1-6.4-2.1-7.5.1-1.9.1-1.9 1.5-.1 1.7 2.2 2.8 1.6 4.9-2.8 3.3-6.9 1.6-17.6-2.8-17.6-1.6 0-4.6 7.5-4.6 11.6 0 4.6-1.2 4.9-3.2.8-2.4-5-2.3-7.2.5-7.6 1.9-.3 2.3-1.1 3.1-7.1 1.2-8.7-.4-15.3-3.4-13.7-3.1 1.7-3.7 1.2-4.3-3.8-.8-7.2-2.5-10.3-5.4-10-2.1.3-2.7-.4-4.4-5.2-1-3-2.8-6.4-4-7.5-2-2-2-2-3.5 0-1.2 1.6-1.4 3.5-.9 8.7.6 6.9-.6 9.4-2 4.1-1.7-6.8-13-16.5-15.8-13.6zm27.1 24.3c.5 4.8-1.1 5.5-3.3 1.4-1.6-3-1.7-3.7-.4-4.5 2.2-1.4 3.4-.5 3.7 3.1zm-8.8 1.1c0 .5-.4.9-1 .9-.5 0-1-.7-1-1.6 0-.8.5-1.2 1-.9.6.3 1 1 1 1.6zm18 12.6v7.8l-2-2.5c-2.6-3.3-3.7-7.3-2.1-7.8.7-.2 1.6-1.5 2.1-2.8 1.6-4 2-2.8 2 5.3zm-9 3.7c0 .8.7 1.9 1.5 2.6 1.5 1.3 2.1 7 .8 7-.5-.1-2.3-1.4-4.2-3-3.3-2.8-3.4-3-1.8-4.8.9-1 1.7-2.4 1.7-3.1 0-.7.5-.9 1-.6.6.3 1 1.2 1 1.9zm6.5 13.6c.4 1.6 1.1 3.2 1.6 3.5 1 .7 1.3 5.5.3 5.5-.3 0-1.9-1-3.4-2.3-1.5-1.2-3.5-2.7-4.4-3.2-1.6-.9-1.6-1.2.6-3.7 3-3.5 4.5-3.5 5.3.2zm-31 15.1c.9 3.9.1 4.6-3 2.9-2.9-1.6-3.1-2.8-.7-4.6 2.5-1.9 3-1.7 3.7 1.7zm-3.4 8c6.2 4.9 4.6 7.8-2.4 4.3-1.8-.9-3.3-1.8-3.5-1.9-.5-.4.9-5.5 1.5-5.5.3 0 2.3 1.4 4.4 3.1zm11.7 12.9c1.7 2.1 3.2 4.1 3.2 4.5 0 .3 1.6 2.2 3.6 4.1 5.5 5.5 3.1 7.5-4.3 3.6-3.1-1.5-3.1-1.7-1.5-3.5s1.5-2-.8-3.8c-1.4-1-4.1-2.2-6-2.5-5.2-1-5.6-1.5-2.1-3 1.7-.7 3.1-1.8 3.1-2.4 0-1.9 1.5-1 4.8 3zm46.1 77.2c1.3 2.3 1.2 3.1-.9 7.9-2.7 6.3-2.9 13.4-.7 19.7.9 2.7 1.1 4.4.5 4.8-3.2 2-12.8-11.4-12.8-17.7 0-5.1 3.4-12.3 7.3-15.3 3.7-3 4.7-2.9 6.6.6z"/><path d="M396.5 229.2c-.7 3.3-2.3 7.5-5.3 13.7-2.6 5.2-11.9 14.3-19 18.4-3.5 2-6.9 3.7-7.6 3.7-.7 0-2.1.6-3.1 1.4-1.8 1.3-1.9 1.7-.6 5.3.7 2.1 2.8 6.8 4.7 10.5 4.2 8.2 4.2 10.5.4 15.3-2.7 3.3-3 4.5-3 10.5 0 7.2-2.8 17.5-6.6 24.7-1.2 2.4-1.8 4.5-1.4 4.8.5.3 3.6-.1 6.9-1 3.2-.8 6.9-1.5 8.2-1.5 1.3 0 5.3-.9 8.9-2.1 3.6-1.1 8.8-2.6 11.5-3.4 2.8-.8 7.5-2.3 10.5-3.5 3-1.2 6.9-2.6 8.5-3.1 1.7-.5 5.4-2 8.3-3.4 2.8-1.4 5.5-2.5 5.8-2.5.3 0 6.7-3 14.3-6.6 11.6-5.7 14.5-7.6 19.8-13 4.2-4.4 6-6.9 5.6-8.1-.3-1-3.5-6.8-7.2-12.8l-6.6-11-8-.6c-13.4-1.1-14.9-1.9-28.6-16.8-2.7-2.9-4.9-6.1-4.9-7 0-1-1.3-3-2.9-4.5-1.6-1.5-3.7-4.5-4.6-6.7-2.2-4.8-3.1-4.9-4-.7zM262.3 378c-5.7 3.4-5.3 10.5.8 13.9 5.4 3 10.9-.7 10.9-7.4 0-3.5-.5-4.8-2.2-5.9-4.1-2.5-6.2-2.6-9.5-.6zM255.3 415c-7.1 2.9-4.6 16 3.1 16 3.9 0 8.6-4.6 8.6-8.4 0-5.5-6.5-9.7-11.7-7.6zM249.7 454.8c-4.4 4.6-3.4 10.9 2.3 13.2 4.3 1.8 8.8-.2 10.7-4.8 1.3-3 1.2-3.7-.3-6-3.9-6-8.5-6.8-12.7-2.4zM255 486.7c-6.2 2.3-8 9.6-3.4 13.8 5.4 5 13.4 1.4 13.4-5.9 0-3.2-2.9-7.6-5.1-7.6-.4 0-1.3-.2-2.1-.4-.7-.3-2-.2-2.8.1z"/></svg>